<svg width="142" height="42" viewBox="0 0 142 42" fill="none" xmlns="http://www.w3.org/2000/svg">
<path d="M16.874 19.938C16.91 20.01 16.946 20.064 16.982 20.1C17.018 20.1 17.036 20.136 17.036 20.208C17.036 20.424 16.586 20.838 15.686 21.45C14.786 22.026 13.67 22.692 12.338 23.448C11.006 24.168 9.602 24.906 8.126 25.662C6.65 26.382 5.336 26.976 4.184 27.444C4.184 27.516 4.148 27.75 4.076 28.146C4.004 28.542 3.968 28.794 3.968 28.902V29.928C3.968 30.756 4.094 31.584 4.346 32.412C4.598 33.204 4.976 33.924 5.48 34.572C6.02 35.22 6.668 35.742 7.424 36.138C8.18 36.534 9.062 36.732 10.07 36.732C10.502 36.732 11.024 36.66 11.636 36.516C12.284 36.336 12.896 36.102 13.472 35.814C14.084 35.49 14.624 35.112 15.092 34.68C15.56 34.248 15.848 33.762 15.956 33.222C16.388 33.258 16.64 33.384 16.712 33.6C16.82 33.816 16.874 33.96 16.874 34.032C16.874 34.968 16.64 35.778 16.172 36.462C15.74 37.11 15.182 37.65 14.498 38.082C13.85 38.478 13.148 38.784 12.392 39C11.672 39.18 11.024 39.27 10.448 39.27C7.352 39.27 5.102 38.406 3.698 36.678C2.294 34.95 1.592 32.682 1.592 29.874C1.592 29.73 1.628 29.406 1.7 28.902C1.772 28.398 1.808 28.056 1.808 27.876C1.808 27.84 1.736 27.804 1.592 27.768C1.448 27.696 1.286 27.624 1.106 27.552C0.962 27.48 0.818 27.372 0.674 27.228C0.566 27.048 0.512 26.814 0.512 26.526C0.512 26.238 0.62 26.004 0.836 25.824C1.052 25.644 1.304 25.482 1.592 25.338L2.132 25.014C2.456 23.646 2.834 22.332 3.266 21.072C3.734 19.776 4.31 18.48 4.994 17.184C4.706 17.184 4.4 17.148 4.076 17.076C3.752 17.004 3.59 16.752 3.59 16.32C3.59 15.816 3.878 15.258 4.454 14.646C5.066 14.034 5.75 13.458 6.506 12.918C7.298 12.378 8.072 11.928 8.828 11.568C9.584 11.172 10.124 10.974 10.448 10.974C10.592 10.974 10.682 11.01 10.718 11.082C10.79 11.118 10.898 11.136 11.042 11.136C11.33 11.136 11.69 11.082 12.122 10.974C12.59 10.866 13.076 10.74 13.58 10.596C14.084 10.452 14.552 10.326 14.984 10.218C15.452 10.11 15.83 10.056 16.118 10.056C16.442 10.056 16.676 10.164 16.82 10.38C17 10.596 17.09 10.83 17.09 11.082C17.09 11.37 16.91 11.586 16.55 11.73C16.19 11.838 15.866 11.928 15.578 12C14.57 12.18 13.508 12.504 12.392 12.972C11.312 13.404 10.304 13.89 9.368 14.43C9.008 14.826 8.576 15.402 8.072 16.158C7.568 16.878 7.082 17.706 6.614 18.642C6.146 19.578 5.714 20.55 5.318 21.558C4.958 22.566 4.724 23.52 4.616 24.42L5.534 23.988C8.306 22.656 10.556 21.612 12.284 20.856C14.048 20.1 15.416 19.722 16.388 19.722C16.568 19.722 16.73 19.794 16.874 19.938ZM28.4256 37.434C28.4256 37.722 28.3176 37.938 28.1016 38.082C27.8856 38.226 27.6336 38.298 27.3456 38.298C27.0216 38.298 26.6796 37.992 26.3196 37.38C25.9956 36.768 25.6716 35.994 25.3476 35.058C25.0236 34.122 24.7176 33.114 24.4296 32.034C24.1416 30.918 23.8896 29.892 23.6736 28.956C23.4576 27.984 23.2776 27.174 23.1336 26.526C23.0256 25.878 22.9716 25.518 22.9716 25.446C22.9716 25.302 22.8996 24.924 22.7556 24.312C22.6476 23.7 22.4856 22.746 22.2696 21.45C22.0896 20.154 21.8736 18.48 21.6216 16.428C21.4056 14.34 21.1716 11.766 20.9196 8.706C20.9196 8.382 20.9736 7.968 21.0816 7.464C21.1896 6.96 21.4416 6.708 21.8376 6.708C22.3416 6.708 22.7196 7.05 22.9716 7.734C23.2596 8.418 23.4756 9.264 23.6196 10.272C23.7996 11.28 23.9256 12.342 23.9976 13.458C24.0696 14.538 24.1596 15.492 24.2676 16.32C24.4116 17.472 24.5376 18.516 24.6456 19.452C24.7896 20.388 24.9156 21.324 25.0236 22.26C25.1676 23.16 25.3296 24.114 25.5096 25.122C25.7256 26.13 25.9776 27.246 26.2656 28.47L28.4256 37.434ZM70.0356 13.404C70.0356 15.744 69.7476 17.796 69.1716 19.56C68.6316 21.324 68.0016 22.89 67.2816 24.258C66.5976 25.59 65.9136 26.796 65.2296 27.876C64.5816 28.92 64.1496 29.928 63.9336 30.9C63.7536 31.548 63.3576 31.872 62.7456 31.872C62.6736 31.872 62.6196 31.872 62.5836 31.872C62.5476 31.836 62.4936 31.818 62.4216 31.818C62.6736 32.43 63.0516 33.132 63.5556 33.924C64.0596 34.68 64.5636 35.454 65.0676 36.246C65.5716 37.038 66.0036 37.812 66.3636 38.568C66.7596 39.324 66.9576 39.972 66.9576 40.512C66.9576 40.8 66.7596 41.07 66.3636 41.322C66.0036 41.61 65.6796 41.754 65.3916 41.754C65.2476 41.754 65.1396 41.664 65.0676 41.484C64.7076 40.188 64.0416 38.802 63.0696 37.326C62.0976 35.85 61.0896 34.194 60.0456 32.358C59.0376 30.522 58.1376 28.452 57.3456 26.148C56.5536 23.844 56.1576 21.234 56.1576 18.318C56.1576 17.094 56.2116 16.068 56.3196 15.24C56.4636 14.376 56.8416 13.944 57.4536 13.944C57.8136 13.944 58.0656 14.052 58.2096 14.268C58.3536 14.484 58.4256 14.718 58.4256 14.97C58.4256 18.246 58.7316 21.126 59.3436 23.61C59.9556 26.094 60.6396 28.02 61.3956 29.388L62.3136 27.984C63.2496 26.544 64.0596 25.284 64.7436 24.204C65.4276 23.088 65.9856 22.008 66.4176 20.964C66.8496 19.884 67.1556 18.786 67.3356 17.67C67.5516 16.554 67.6596 15.258 67.6596 13.782C67.6596 13.386 67.6056 12.954 67.4976 12.486C67.4256 12.018 67.2816 11.604 67.0656 11.244C66.8856 10.848 66.6516 10.524 66.3636 10.272C66.0756 10.02 65.7156 9.894 65.2836 9.894C64.7076 9.894 63.8256 10.056 62.6376 10.38C61.4856 10.704 60.2976 11.136 59.0736 11.676C57.8496 12.216 56.7336 12.828 55.7256 13.512C54.7176 14.16 54.1056 14.826 53.8896 15.51C53.8536 15.582 53.7996 15.672 53.7276 15.78C53.6556 15.888 53.5836 15.942 53.5116 15.942C53.2596 15.942 52.9896 15.744 52.7016 15.348C52.4136 14.952 52.2696 14.61 52.2696 14.322C52.2696 13.674 52.5576 13.044 53.1336 12.432C53.7096 11.82 54.4296 11.262 55.2936 10.758C56.1936 10.254 57.1836 9.804 58.2636 9.408C59.3436 8.976 60.3876 8.634 61.3956 8.382C62.4036 8.094 63.3036 7.878 64.0956 7.734C64.9236 7.554 65.5176 7.464 65.8776 7.464C66.4536 7.464 66.9936 7.626 67.4976 7.95C68.0376 8.274 68.4876 8.706 68.8476 9.246C69.2076 9.786 69.4956 10.416 69.7116 11.136C69.9276 11.856 70.0356 12.612 70.0356 13.404ZM87.4356 22.53C87.4356 22.782 87.3276 22.998 87.1116 23.178C86.8956 23.322 86.6436 23.448 86.3556 23.556C86.0676 23.664 85.7796 23.754 85.4916 23.826C85.2036 23.862 84.9696 23.88 84.7896 23.88C84.2496 23.88 83.8896 23.844 83.7096 23.772C83.5296 23.7 83.3856 23.664 83.2776 23.664C82.3776 23.664 81.6576 23.736 81.1176 23.88C80.5776 24.024 80.1456 24.258 79.8216 24.582C79.5336 24.906 79.3356 25.32 79.2276 25.824C79.1556 26.292 79.1196 26.868 79.1196 27.552C79.1196 28.704 79.1556 29.622 79.2276 30.306C79.3356 30.99 79.4256 31.548 79.4976 31.98C79.6056 32.412 79.6956 32.754 79.7676 33.006C79.8756 33.222 79.9296 33.438 79.9296 33.654C79.9296 33.942 79.7676 34.248 79.4436 34.572C79.1556 34.896 78.8856 35.058 78.6336 35.058C78.2016 35.058 77.8056 34.68 77.4456 33.924C77.1216 33.132 76.8336 32.214 76.5816 31.17C76.3656 30.09 76.1856 29.028 76.0416 27.984C75.8976 26.94 75.8256 26.148 75.8256 25.608C75.8256 24.996 75.8796 24.42 75.9876 23.88C76.0956 23.304 76.2396 22.818 76.4196 22.422C76.5996 21.99 76.7976 21.648 77.0136 21.396C77.2296 21.144 77.4456 21.018 77.6616 21.018C77.8416 21.018 77.9856 21.09 78.0936 21.234C78.2016 21.342 78.2916 21.486 78.3636 21.666C78.4356 21.81 78.5076 21.954 78.5796 22.098C78.6876 22.206 78.8136 22.26 78.9576 22.26C79.2816 22.26 79.8036 22.098 80.5236 21.774C81.2436 21.45 82.1256 21.288 83.1696 21.288C84.1416 21.288 84.8616 21.324 85.3296 21.396C85.8336 21.432 86.3196 21.54 86.7876 21.72C86.8956 21.756 87.0216 21.846 87.1656 21.99C87.3456 22.098 87.4356 22.278 87.4356 22.53ZM101.594 27.336C101.594 28.128 101.486 28.884 101.27 29.604C101.054 30.324 100.766 30.954 100.406 31.494C100.046 32.034 99.6136 32.466 99.1096 32.79C98.6416 33.078 98.1196 33.222 97.5436 33.222C96.5356 33.222 95.7436 32.934 95.1676 32.358C94.5916 31.782 94.1416 31.116 93.8176 30.36C93.5296 29.604 93.3316 28.848 93.2236 28.092C93.1516 27.3 93.1156 26.706 93.1156 26.31C93.1156 25.662 93.2056 24.942 93.3856 24.15C93.6016 23.322 93.8716 22.566 94.1956 21.882C94.5556 21.198 94.9516 20.622 95.3836 20.154C95.8156 19.686 96.2656 19.452 96.7336 19.452C96.8416 19.452 97.0036 19.488 97.2196 19.56C97.4716 19.632 97.7236 19.74 97.9756 19.884C98.2276 20.028 98.4436 20.208 98.6236 20.424C98.8396 20.64 98.9836 20.892 99.0556 21.18C99.4516 21.216 99.8476 21.36 100.244 21.612C100.64 21.864 100.856 22.062 100.892 22.206C101.18 23.142 101.36 24.078 101.432 25.014C101.54 25.95 101.594 26.724 101.594 27.336ZM99.1636 26.364C99.1636 25.824 99.1096 25.266 99.0016 24.69C98.8936 24.078 98.6776 23.466 98.3536 22.854C98.2816 22.89 98.1916 22.908 98.0836 22.908C97.9396 22.908 97.8136 22.89 97.7056 22.854C97.6336 22.818 97.5616 22.8 97.4896 22.8C97.0576 22.8 96.7156 22.926 96.4636 23.178C96.2116 23.394 96.0136 23.7 95.8696 24.096C95.7616 24.456 95.6896 24.852 95.6536 25.284C95.6176 25.716 95.5996 26.13 95.5996 26.526C95.5996 26.922 95.6176 27.372 95.6536 27.876C95.6896 28.344 95.7616 28.794 95.8696 29.226C96.0136 29.658 96.1936 30.036 96.4096 30.36C96.6256 30.648 96.9136 30.792 97.2736 30.792C97.6336 30.792 97.9396 30.612 98.1916 30.252C98.4436 29.856 98.6416 29.406 98.7856 28.902C98.9296 28.398 99.0196 27.912 99.0556 27.444C99.1276 26.94 99.1636 26.58 99.1636 26.364ZM122.494 30.306C122.494 30.486 122.404 30.666 122.224 30.846C122.08 30.99 121.99 31.152 121.954 31.332C121.954 31.728 122.026 32.106 122.17 32.466C122.35 32.826 122.44 33.258 122.44 33.762C122.44 34.23 122.296 34.464 122.008 34.464C121.648 34.464 121.378 34.518 121.198 34.626C121.054 34.698 120.784 34.77 120.388 34.842C120.172 34.842 119.938 34.644 119.686 34.248C119.542 34.068 119.416 33.852 119.308 33.6C119.308 33.564 119.2 33.636 118.984 33.816C118.804 33.996 118.48 34.212 118.012 34.464C117.58 34.68 116.968 34.896 116.176 35.112C115.42 35.292 114.448 35.382 113.26 35.382C112.252 35.382 111.37 35.166 110.614 34.734C109.858 34.266 109.228 33.672 108.724 32.952C108.256 32.232 107.896 31.422 107.644 30.522C107.428 29.586 107.32 28.65 107.32 27.714C107.32 26.85 107.41 26.04 107.59 25.284C107.806 24.492 108.094 23.808 108.454 23.232C108.814 22.62 109.264 22.134 109.804 21.774C110.344 21.414 110.974 21.234 111.694 21.234C112.378 21.234 113.062 21.45 113.746 21.882C114.43 22.314 115.042 22.782 115.582 23.286C116.122 23.79 116.554 24.258 116.878 24.69C117.238 25.086 117.418 25.284 117.418 25.284C116.914 22.476 116.464 19.938 116.068 17.67C115.888 16.698 115.708 15.744 115.528 14.808C115.384 13.836 115.24 12.972 115.096 12.216C114.952 11.46 114.826 10.83 114.718 10.326C114.646 9.786 114.61 9.462 114.61 9.354C114.574 9.138 114.538 8.76 114.502 8.22C114.466 7.644 114.43 7.05 114.394 6.438C114.358 5.826 114.322 5.268 114.286 4.764C114.25 4.26 114.214 3.936 114.178 3.792C114.07 3.432 113.926 2.982 113.746 2.442C113.602 1.902 113.53 1.596 113.53 1.524C113.53 1.344 113.62 1.128 113.8 0.875998C113.98 0.587998 114.214 0.443998 114.502 0.443998C114.718 0.443998 114.916 0.461997 115.096 0.497997C115.276 0.533998 115.438 0.641999 115.582 0.821999C115.726 1.002 115.852 1.29 115.96 1.686C116.104 2.046 116.23 2.568 116.338 3.252C116.374 3.612 116.482 4.296 116.662 5.304C116.842 6.312 117.022 7.41 117.202 8.598C117.382 9.786 117.562 10.92 117.742 12C117.922 13.08 118.048 13.872 118.12 14.376C118.3 15.744 118.534 17.238 118.822 18.858C119.146 20.442 119.47 21.972 119.794 23.448C120.118 24.924 120.442 26.238 120.766 27.39C121.09 28.506 121.378 29.262 121.63 29.658C121.702 29.802 121.846 29.91 122.062 29.982C122.278 30.018 122.422 30.126 122.494 30.306ZM118.498 31.386C118.462 31.278 118.228 30.828 117.796 30.036C117.4 29.208 116.878 28.326 116.23 27.39C115.618 26.418 114.916 25.554 114.124 24.798C113.368 24.042 112.63 23.664 111.91 23.664C111.298 23.664 110.794 24.132 110.398 25.068C110.038 26.004 109.858 27.084 109.858 28.308C109.858 29.676 110.254 30.774 111.046 31.602C111.874 32.43 112.792 32.844 113.8 32.844C114.664 32.844 115.564 32.7 116.5 32.412C117.436 32.124 118.102 31.782 118.498 31.386ZM141.833 33.33C141.869 33.402 141.887 33.51 141.887 33.654C141.887 33.87 141.725 34.194 141.401 34.626C141.293 34.77 141.059 35.004 140.699 35.328C140.339 35.652 139.853 35.976 139.241 36.3C138.629 36.624 137.873 36.912 136.973 37.164C136.109 37.416 135.083 37.542 133.895 37.542C133.067 37.542 132.257 37.362 131.465 37.002C130.673 36.606 129.971 36.048 129.359 35.328C128.747 34.572 128.243 33.654 127.847 32.574C127.451 31.458 127.253 30.162 127.253 28.686C127.253 27.282 127.433 25.968 127.793 24.744C128.153 23.52 128.603 22.44 129.143 21.504C129.719 20.568 130.349 19.83 131.033 19.29C131.717 18.75 132.383 18.48 133.031 18.48C133.607 18.48 134.183 18.606 134.759 18.858C135.371 19.074 135.911 19.362 136.379 19.722C136.883 20.082 137.279 20.496 137.567 20.964C137.855 21.396 137.999 21.846 137.999 22.314C137.999 22.854 137.747 23.412 137.243 23.988C136.775 24.564 136.199 25.104 135.515 25.608C134.831 26.076 134.147 26.472 133.463 26.796C132.779 27.084 132.239 27.228 131.843 27.228C131.627 27.228 131.429 27.138 131.249 26.958C131.105 26.742 131.033 26.49 131.033 26.202C131.033 25.698 131.249 25.302 131.681 25.014C132.149 24.726 132.653 24.474 133.193 24.258C133.733 24.006 134.219 23.718 134.651 23.394C135.119 23.07 135.353 22.62 135.353 22.044C135.353 21.972 135.263 21.792 135.083 21.504C134.903 21.216 134.417 21.072 133.625 21.072C133.265 21.072 132.851 21.288 132.383 21.72C131.915 22.116 131.465 22.674 131.033 23.394C130.601 24.078 130.241 24.906 129.953 25.878C129.665 26.814 129.521 27.84 129.521 28.956C129.521 29.892 129.683 30.738 130.007 31.494C130.367 32.25 130.817 32.898 131.357 33.438C131.897 33.942 132.527 34.338 133.247 34.626C133.967 34.914 134.705 35.058 135.461 35.058C136.001 35.058 136.577 34.95 137.189 34.734C137.837 34.482 138.431 34.23 138.971 33.978C139.547 33.69 140.033 33.438 140.429 33.222C140.861 32.97 141.131 32.844 141.239 32.844C141.347 32.844 141.455 32.898 141.563 33.006C141.707 33.114 141.797 33.222 141.833 33.33Z" fill="#467948"/>
</svg>
